<?xml version="1.0" standalone="no"?>
<!DOCTYPE svg PUBLIC "-//W3C//DTD SVG 20010904//EN"
 "http://www.w3.org/TR/2001/REC-SVG-20010904/DTD/svg10.dtd">
<svg version="1.0" xmlns="http://www.w3.org/2000/svg"
 width="83.000000pt" height="83.000000pt" viewBox="0 0 83.000000 83.000000"
 preserveAspectRatio="xMidYMid meet">
<metadata>
Created by potrace 1.11, written by Peter Selinger 2001-2013
</metadata>
<g transform="translate(0.000000,83.000000) scale(0.100000,-0.100000)"
fill="#000000" stroke="none">
<path d="M660 810 c-8 -5 -48 -19 -87 -31 -40 -12 -73 -26 -73 -30 0 -5 -3 -8
-7 -8 -22 4 -33 -2 -27 -13 5 -10 4 -10 -6 -1 -15 14 -43 6 -33 -10 3 -6 1 -7
-6 -3 -6 4 -19 2 -28 -6 -14 -11 -16 -11 -8 2 8 13 7 13 -8 1 -9 -7 -17 -10
-17 -6 0 4 -12 0 -26 -10 -15 -9 -23 -12 -19 -5 5 8 2 9 -11 1 -11 -6 -55 -20
-99 -31 -151 -40 -203 -83 -187 -155 9 -40 18 -52 77 -104 28 -25 93 -84 145
-131 52 -48 115 -104 139 -126 25 -21 61 -54 80 -73 71 -68 123 -83 168 -48
25 19 46 44 48 57 2 8 19 94 20 100 1 3 4 19 8 35 4 17 9 40 12 53 2 13 6 31
9 40 9 29 19 86 20 115 0 15 4 27 8 27 3 0 5 8 3 18 -1 9 2 23 8 30 8 10 7 16
-4 23 -10 6 -10 9 -1 9 6 0 12 9 12 19 0 11 6 22 13 24 7 4 8 6 1 6 -8 1 -7
14 3 44 32 89 22 146 -31 181 -28 18 -73 21 -96 6z m-134 -125 c1 -8 -1 -17
-5 -19 -4 -3 -7 6 -7 19 0 25 8 25 12 0z m-156 -39 c-7 -7 -13 -7 -20 0 -6 6
-3 10 10 10 13 0 16 -4 10 -10z m78 -5 c-7 -9 -13 -18 -15 -20 -1 -2 -1 5 0
16 0 11 7 20 14 20 10 0 10 -4 1 -16z m42 9 c0 -5 -2 -10 -4 -10 -3 0 -8 5
-11 10 -3 6 -1 10 4 10 6 0 11 -4 11 -10z m61 -17 c13 -16 12 -17 -3 -4 -10 7
-18 15 -18 17 0 8 8 3 21 -13z m-140 -20 c13 -16 12 -17 -3 -4 -17 13 -22 21
-14 21 2 0 10 -8 17 -17z m353 -1 c3 -5 -1 -9 -9 -9 -8 0 -12 4 -9 9 3 4 7 8
9 8 2 0 6 -4 9 -8z m-295 -15 c8 -10 7 -14 -2 -14 -8 0 -14 6 -14 14 0 7 1 13
2 13 2 0 8 -6 14 -13z m126 -7 c-3 -5 -12 -10 -18 -10 -7 0 -6 4 3 10 19 12
23 12 15 0z m89 -6 c3 -8 2 -12 -4 -9 -6 3 -10 10 -10 16 0 14 7 11 14 -7z
m-64 -8 c0 -2 -8 -10 -17 -17 -16 -13 -17 -12 -4 4 13 16 21 21 21 13z m115
-5 c-9 -8 -36 -10 -30 -2 2 4 11 8 20 8 8 0 13 -3 10 -6z m-51 -30 c-2 -3 -12
3 -22 13 -16 17 -16 18 5 5 12 -7 20 -15 17 -18z m-115 16 c-2 -1 -13 -9 -24
-17 -19 -14 -19 -14 -6 3 7 9 18 17 24 17 6 0 8 -1 6 -3z m32 -34 c13 -16 12
-17 -3 -4 -17 13 -22 21 -14 21 2 0 10 -8 17 -17z m-34 -8 c0 -8 -3 -13 -5
-10 -3 3 -10 0 -17 -5 -8 -7 -12 -5 -12 5 0 8 4 12 8 9 4 -2 10 0 14 6 9 14
12 13 12 -5z m143 1 c0 -2 -7 -7 -16 -10 -8 -3 -12 -2 -9 4 6 10 25 14 25 6z
m-96 -24 c2 -4 -4 -8 -14 -8 -10 0 -16 4 -14 8 3 4 9 8 14 8 5 0 11 -4 14 -8z
m73 -17 c0 -8 -4 -12 -9 -9 -5 3 -6 10 -3 15 9 13 12 11 12 -6z"/>
</g>
</svg>
